<?xml version="1.0" standalone="no"?>
<!DOCTYPE svg PUBLIC "-//W3C//DTD SVG 20010904//EN"
 "http://www.w3.org/TR/2001/REC-SVG-20010904/DTD/svg10.dtd">
<svg version="1.0" xmlns="http://www.w3.org/2000/svg"
 width="1160.000000pt" height="1160.000000pt" viewBox="0 0 1160.000000 1160.000000"
 preserveAspectRatio="xMidYMid meet">
<metadata>
Created by potrace 1.16, written by Peter Selinger 2001-2019
</metadata>
<g transform="translate(0.000000,1160.000000) scale(0.100000,-0.100000)"
stroke="none">
<path d="M1593 10785 c-382 -69 -673 -342 -770 -721 -16 -62 -18 -129 -18
-669 0 -591 1 -601 23 -680 104 -371 393 -634 771 -700 118 -21 1088 -21 1203
0 265 47 489 190 637 407 48 71 108 203 133 293 23 79 23 88 23 685 0 597 0
606 -23 685 -104 372 -393 634 -771 700 -114 20 -1098 20 -1208 0z m1153 -416
c158 -29 304 -139 374 -283 22 -44 45 -105 50 -135 13 -71 13 -1031 0 -1102
-5 -30 -28 -91 -50 -135 -69 -142 -219 -255 -374 -283 -81 -15 -1011 -15
-1092 0 -155 28 -305 141 -374 283 -22 44 -45 105 -50 135 -6 31 -10 267 -10
560 0 551 1 566 58 681 37 76 151 189 231 230 112 56 138 58 682 59 318 1 517
-3 555 -10z"/>
<path d="M2042 9980 c-217 -58 -379 -228 -428 -447 -79 -356 199 -704 566
-707 168 -1 302 54 421 173 119 119 174 253 173 421 -2 246 -160 465 -395 547
-102 35 -237 41 -337 13z"/>
<path d="M4132 10789 c-69 -21 -132 -111 -132 -189 0 -78 65 -170 131 -187
l32 -9 -49 -25 c-124 -64 -151 -222 -54 -319 22 -22 54 -43 71 -47 l32 -9 -49
-25 c-29 -15 -61 -42 -79 -68 -26 -37 -30 -51 -30 -109 0 -53 5 -75 24 -105
47 -76 140 -111 229 -88 52 14 118 76 129 122 l9 32 25 -49 c15 -29 42 -61 68
-79 37 -26 51 -30 110 -30 56 0 74 4 108 27 63 41 88 90 88 169 0 54 -5 72
-27 106 -41 63 -90 88 -170 88 -58 0 -72 -4 -109 -30 -24 -17 -52 -48 -63 -72
-21 -42 -36 -55 -36 -30 0 29 -60 95 -106 118 l-48 23 32 8 c18 5 50 26 72 48
97 97 70 255 -54 319 l-49 25 32 9 c41 10 108 77 118 118 l9 32 25 -49 c15
-29 42 -61 68 -79 37 -26 51 -30 110 -30 56 0 74 4 108 27 62 41 88 90 88 168
0 78 -26 127 -88 168 -34 23 -52 27 -108 27 -59 0 -73 -4 -110 -30 -24 -17
-52 -48 -63 -72 -12 -23 -23 -42 -26 -42 -3 0 -14 19 -26 42 -40 82 -148 125
-242 96z"/>
<path d="M5332 10789 c-48 -14 -109 -80 -123 -131 -41 -156 93 -290 249 -249
52 14 118 76 130 123 l8 32 23 -47 c24 -51 72 -94 117 -106 26 -7 26 -7 -22
-32 -124 -64 -151 -222 -54 -319 22 -22 54 -43 71 -47 l32 -9 -49 -25 c-124
-64 -151 -222 -54 -319 22 -22 54 -43 71 -47 l32 -9 -49 -25 c-124 -64 -151
-222 -54 -319 22 -22 54 -43 72 -48 l32 -8 -48 -23 c-46 -23 -106 -89 -106
-118 0 -25 -15 -12 -36 30 -11 24 -39 55 -63 72 -37 26 -51 30 -109 30 -80 0
-129 -25 -170 -88 -37 -56 -39 -153 -3 -210 47 -76 140 -111 229 -88 52 14
118 76 130 123 l8 32 23 -47 c24 -51 72 -94 117 -106 26 -7 26 -7 -22 -32
-124 -64 -151 -222 -54 -319 22 -22 54 -43 71 -47 l32 -9 -49 -25 c-124 -64
-151 -222 -54 -319 22 -22 54 -43 71 -47 l32 -9 -49 -25 c-29 -15 -61 -42 -79
-68 -26 -37 -30 -51 -30 -109 0 -53 5 -75 24 -105 47 -76 140 -111 229 -88 52
14 118 76 129 122 l9 32 25 -49 c15 -29 42 -61 68 -79 37 -26 51 -30 109 -30
80 0 129 25 170 88 23 34 27 52 27 107 0 55 -4 73 -27 107 -41 63 -90 88 -170
88 -58 0 -72 -4 -109 -30 -24 -17 -52 -48 -63 -72 -21 -42 -36 -55 -36 -30 0
29 -60 95 -106 118 l-48 23 32 8 c18 5 50 26 72 48 97 97 70 255 -54 319 l-49
25 32 9 c41 10 108 77 118 118 l9 32 25 -49 c15 -29 42 -61 68 -79 37 -26 51
-30 110 -30 56 0 74 4 108 27 62 41 88 90 88 168 0 78 -26 127 -88 168 -34 23
-52 27 -108 27 -59 0 -73 -4 -110 -30 -24 -17 -52 -48 -63 -72 -21 -42 -36
-55 -36 -30 0 29 -60 95 -106 118 l-48 23 32 8 c18 5 50 26 72 48 97 97 70
255 -54 319 l-49 25 32 9 c41 10 108 77 118 118 l9 32 25 -49 c15 -29 42 -61
68 -79 37 -26 51 -30 109 -30 80 0 129 25 170 88 23 34 27 52 27 108 0 59 -4
73 -30 110 -18 26 -50 53 -79 68 l-49 25 32 9 c41 10 108 77 118 118 l9 32 25
-49 c64 -124 222 -151 319 -54 22 22 43 54 47 71 l9 32 25 -49 c15 -29 42 -61
68 -79 37 -26 51 -30 110 -30 56 0 74 4 108 27 62 41 88 90 88 168 0 78 -26
127 -88 168 -34 23 -52 27 -108 27 -59 0 -73 -4 -110 -30 -24 -17 -52 -48 -63
-72 -21 -42 -36 -55 -36 -30 0 29 -60 95 -106 118 l-48 23 32 8 c47 12 109 78
123 130 23 88 -9 177 -84 226 -56 37 -153 39 -210 3 -76 -47 -111 -140 -88
-229 14 -52 76 -118 123 -130 l32 -8 -48 -23 c-46 -23 -106 -89 -106 -118 0
-25 -15 -12 -36 30 -11 24 -39 55 -63 72 -37 26 -51 30 -111 30 -60 0 -74 -4
-111 -30 -24 -17 -52 -48 -63 -72 -21 -42 -36 -55 -36 -30 0 29 -60 95 -106
118 l-48 23 32 8 c18 5 50 26 72 48 97 97 70 255 -54 319 l-49 25 32 9 c41 10
108 77 118 118 l9 32 25 -49 c15 -29 42 -61 68 -79 37 -26 51 -30 109 -30 80
0 129 25 170 88 23 34 27 52 27 107 0 55 -4 73 -27 107 -41 63 -90 88 -170 88
-58 0 -72 -4 -109 -30 -24 -17 -52 -48 -63 -72 -12 -23 -23 -42 -26 -42 -3 0
-14 19 -26 42 -11 24 -39 55 -63 72 -37 26 -51 30 -111 30 -60 0 -74 -4 -111
-30 -24 -17 -52 -48 -63 -72 -12 -23 -23 -42 -26 -42 -3 0 -14 19 -26 42 -40
82 -148 125 -242 96z m688 -1074 c24 -49 72 -92 116 -104 28 -7 28 -7 -20 -30
-46 -23 -106 -89 -106 -118 0 -7 -4 -13 -10 -13 -5 0 -10 6 -10 13 0 29 -60
95 -106 118 l-48 23 32 8 c42 11 111 80 119 118 3 17 7 30 8 30 2 0 13 -20 25
-45z"/>
<path d="M8793 10785 c-382 -69 -673 -342 -770 -721 -16 -62 -18 -129 -18
-669 0 -591 1 -601 23 -680 104 -371 393 -634 771 -700 118 -21 1088 -21 1203
0 265 47 489 190 637 407 48 71 108 203 133 293 23 79 23 88 23 685 0 597 0
606 -23 685 -104 372 -393 634 -771 700 -114 20 -1098 20 -1208 0z m1153 -416
c158 -29 304 -139 374 -283 22 -44 45 -105 50 -135 6 -31 10 -264 10 -551 0
-287 -4 -520 -10 -551 -5 -30 -28 -91 -50 -135 -69 -142 -219 -255 -374 -283
-81 -15 -1011 -15 -1092 0 -155 28 -305 141 -374 283 -22 44 -45 105 -50 135
-6 31 -10 267 -10 560 0 551 1 566 58 681 37 76 151 189 231 230 112 56 138
58 682 59 318 1 517 -3 555 -10z"/>
<path d="M9242 9980 c-217 -58 -379 -228 -428 -447 -79 -356 199 -704 566
-707 168 -1 302 54 421 173 119 119 174 253 173 421 -2 246 -160 465 -395 547
-102 35 -237 41 -337 13z"/>
<path d="M4932 10389 c-48 -14 -109 -80 -123 -131 -23 -89 12 -182 88 -229 57
-36 154 -34 210 3 62 41 88 90 88 168 0 77 -26 127 -85 166 -43 29 -125 39
-178 23z"/>
<path d="M7332 10389 c-48 -14 -109 -80 -123 -131 -23 -89 12 -182 88 -229 57
-36 154 -34 210 3 62 41 88 90 88 168 0 77 -26 127 -85 166 -43 29 -125 39
-178 23z"/>
<path d="M7332 9589 c-69 -21 -132 -111 -132 -189 0 -78 65 -170 131 -187 l32
-9 -49 -25 c-124 -64 -151 -222 -54 -319 22 -22 54 -43 71 -47 l32 -9 -49 -25
c-124 -64 -151 -222 -54 -319 22 -22 54 -43 71 -47 l32 -9 -49 -25 c-124 -64
-151 -222 -54 -319 22 -22 54 -43 71 -47 l32 -9 -49 -25 c-124 -64 -151 -222
-54 -319 22 -22 54 -43 71 -47 l32 -9 -49 -25 c-29 -15 -61 -42 -79 -68 -26
-37 -30 -51 -30 -109 0 -53 5 -75 24 -105 47 -76 140 -111 229 -88 52 14 118
76 130 123 l8 32 23 -47 c24 -51 72 -94 117 -106 26 -7 26 -7 -22 -32 -29 -15
-61 -42 -79 -68 -26 -37 -30 -51 -30 -109 0 -80 25 -129 88 -170 34 -23 52
-27 107 -27 55 0 73 4 107 27 63 41 88 90 88 170 0 58 -4 72 -30 109 -18 26
-50 53 -79 68 l-49 25 32 9 c46 11 108 77 122 129 23 88 -9 177 -84 226 -34
23 -52 27 -108 27 -59 0 -73 -4 -110 -30 -24 -17 -52 -48 -63 -72 -21 -42 -36
-55 -36 -30 0 29 -60 95 -106 118 l-48 23 32 8 c18 5 50 26 72 48 97 97 70
255 -54 319 l-49 25 32 9 c17 4 49 25 71 47 97 97 70 255 -54 319 l-49 25 32
9 c17 4 49 25 71 47 97 97 70 255 -54 319 l-49 25 32 9 c17 4 49 25 71 47 97
97 70 255 -54 319 l-49 25 32 9 c46 11 108 77 122 129 33 126 -47 244 -172
253 -30 3 -69 0 -87 -6z"/>
<path d="M4132 9189 c-48 -14 -109 -80 -123 -131 -41 -156 93 -290 249 -249
52 14 118 76 130 123 l8 32 23 -47 c24 -51 72 -94 117 -106 26 -7 26 -7 -22
-32 -29 -15 -61 -42 -79 -68 -26 -37 -30 -51 -30 -110 0 -56 4 -74 27 -108 49
-75 138 -107 226 -84 52 14 118 76 130 123 l8 32 23 -47 c24 -51 72 -94 117
-106 26 -7 26 -7 -22 -32 -124 -64 -151 -222 -54 -319 22 -22 54 -43 71 -47
l32 -9 -49 -25 c-124 -64 -151 -222 -54 -319 22 -22 54 -43 72 -48 l32 -8 -48
-23 c-46 -23 -106 -89 -106 -118 0 -25 -15 -12 -36 30 -11 24 -39 55 -63 72
-37 26 -51 30 -111 30 -60 0 -74 -4 -111 -30 -24 -17 -52 -48 -63 -72 -12 -23
-23 -42 -26 -42 -3 0 -14 19 -26 42 -11 24 -39 55 -63 72 -37 26 -51 30 -111
30 -60 0 -74 -4 -111 -30 -24 -17 -52 -48 -63 -72 -12 -23 -23 -42 -26 -42 -3
0 -14 19 -26 42 -11 24 -39 55 -63 72 -37 26 -51 30 -111 30 -60 0 -74 -4
-111 -30 -24 -17 -52 -48 -63 -72 -12 -23 -23 -42 -26 -42 -3 0 -14 19 -26 42
-11 24 -39 55 -63 72 -37 26 -51 30 -111 30 -60 0 -74 -4 -111 -30 -24 -17
-52 -48 -63 -72 -12 -23 -23 -42 -26 -42 -3 0 -14 19 -26 42 -11 24 -39 55
-63 72 -37 26 -51 30 -111 30 -60 0 -74 -4 -111 -30 -24 -17 -52 -48 -63 -72
-12 -23 -23 -42 -26 -42 -3 0 -14 19 -26 42 -11 24 -39 55 -63 72 -37 26 -51
30 -111 30 -60 0 -74 -4 -111 -30 -24 -17 -52 -48 -63 -72 -12 -23 -23 -42
-26 -42 -3 0 -14 19 -26 42 -11 24 -39 55 -63 72 -37 26 -51 30 -109 30 -53 0
-75 -5 -105 -24 -76 -47 -111 -140 -88 -229 14 -52 76 -118 123 -130 l32 -8
-48 -23 c-46 -23 -106 -89 -106 -118 0 -25 -15 -12 -36 30 -11 24 -39 55 -63
72 -37 26 -51 30 -110 30 -56 0 -74 -4 -108 -27 -75 -49 -107 -138 -84 -226
14 -52 76 -118 122 -129 l32 -9 -49 -25 c-124 -64 -151 -222 -54 -319 22 -22
54 -43 71 -47 l32 -9 -49 -25 c-124 -64 -151 -222 -54 -319 22 -22 54 -43 72
-48 l32 -8 -48 -23 c-46 -23 -106 -89 -106 -118 0 -25 -15 -12 -36 30 -11 24
-39 55 -63 72 -37 26 -51 30 -111 30 -60 0 -74 -4 -111 -30 -24 -17 -52 -48
-63 -72 -12 -23 -23 -42 -26 -42 -3 0 -14 19 -26 42 -11 24 -39 55 -63 72 -37
26 -51 30 -110 30 -56 0 -74 -4 -108 -27 -75 -49 -107 -138 -84 -226 14 -52
76 -118 122 -129 l32 -9 -49 -25 c-124 -64 -151 -222 -54 -319 22 -22 54 -43
71 -47 l32 -9 -49 -25 c-124 -64 -151 -222 -54 -319 22 -22 54 -43 71 -47 l32
-9 -49 -25 c-124 -64 -151 -222 -54 -319 22 -22 54 -43 71 -47 l32 -9 -49 -25
c-29 -15 -61 -42 -79 -68 -26 -37 -30 -51 -30 -110 0 -56 4 -74 27 -108 41
-62 90 -88 168 -88 78 0 127 26 168 88 23 34 27 52 27 108 0 59 -4 73 -30 110
-18 26 -50 53 -79 68 l-49 25 32 9 c17 4 49 25 71 47 97 97 70 255 -54 319
l-49 25 32 9 c41 10 108 77 118 118 l9 32 25 -49 c64 -124 222 -151 319 -54
22 22 43 54 47 71 l9 32 25 -49 c64 -124 222 -151 319 -54 22 22 43 54 47 71
l9 32 25 -49 c64 -124 222 -151 319 -54 22 22 43 54 48 72 l8 32 23 -47 c24
-51 72 -94 117 -106 26 -7 26 -7 -22 -32 -29 -15 -61 -42 -79 -68 -26 -37 -30
-51 -30 -109 0 -80 25 -129 88 -170 34 -23 52 -27 107 -27 55 0 73 4 107 27
63 41 88 90 88 170 0 58 -4 72 -30 109 -18 26 -50 53 -79 68 l-49 25 32 9 c17
4 49 25 71 47 97 97 70 255 -54 319 l-49 25 32 9 c41 10 108 77 118 118 l9 32
25 -49 c15 -29 42 -61 68 -79 37 -26 51 -30 110 -30 56 0 74 4 108 27 62 41
88 90 88 168 0 78 -26 127 -88 168 -34 23 -52 27 -108 27 -59 0 -73 -4 -110
-30 -24 -17 -52 -48 -63 -72 -21 -42 -36 -55 -36 -30 0 29 -60 95 -106 118
l-48 23 32 8 c18 5 50 26 72 48 97 97 70 255 -54 319 l-49 25 32 9 c41 10 108
77 118 118 l9 32 25 -49 c15 -29 42 -61 68 -79 37 -26 51 -30 109 -30 80 0
129 25 170 88 23 34 27 52 27 108 0 59 -4 73 -30 110 -18 26 -50 53 -79 68
l-49 25 32 9 c41 10 108 77 118 118 l9 32 25 -49 c64 -124 222 -151 319 -54
22 22 43 54 47 71 l9 32 25 -49 c15 -29 42 -61 68 -79 37 -26 51 -30 110 -30
56 0 74 4 108 27 62 41 88 90 88 168 0 78 -26 127 -88 168 -34 23 -52 27 -108
27 -59 0 -73 -4 -110 -30 -24 -17 -52 -48 -63 -72 -12 -23 -23 -42 -26 -42 -3
0 -14 19 -26 42 -11 24 -39 55 -63 72 -37 26 -51 30 -111 30 -60 0 -74 -4
-111 -30 -24 -17 -52 -48 -63 -72 -12 -23 -23 -42 -26 -42 -3 0 -14 19 -26 42
-11 24 -39 55 -63 72 -37 26 -51 30 -110 30 -56 0 -74 -4 -108 -27 -75 -49
-107 -138 -84 -226 14 -52 76 -118 123 -130 l32 -8 -48 -23 c-46 -23 -106 -89
-106 -118 0 -25 -15 -12 -36 30 -11 24 -39 55 -63 72 -37 26 -51 30 -110 30
-56 0 -74 -4 -108 -27 -75 -49 -107 -138 -84 -226 14 -52 76 -118 123 -130
l32 -8 -48 -23 c-46 -23 -106 -89 -106 -118 0 -25 -15 -12 -36 30 -11 24 -39
55 -63 72 -37 26 -51 30 -111 30 -60 0 -74 -4 -111 -30 -24 -17 -52 -48 -63
-72 -21 -42 -36 -55 -36 -30 0 29 -60 95 -106 118 l-48 23 32 8 c18 5 50 26
72 48 97 97 70 255 -54 319 l-49 25 32 9 c41 10 108 77 118 118 l9 32 25 -49
c15 -29 42 -61 68 -79 37 -26 51 -30 110 -30 56 0 74 4 108 27 63 41 88 90 88
170 0 58 -4 72 -30 109 -18 26 -50 53 -79 68 l-49 25 32 9 c17 4 49 25 71 47
97 97 70 255 -54 319 l-49 25 32 9 c41 10 108 77 118 118 l9 32 25 -49 c64
-124 222 -151 319 -54 22 22 43 54 47 71 l9 32 25 -49 c64 -124 222 -151 319
-54 22 22 43 54 47 71 l9 32 25 -49 c64 -124 222 -151 319 -54 22 22 43 54 47
71 l9 32 25 -49 c64 -124 222 -151 319 -54 22 22 43 54 47 71 l9 32 25 -49
c64 -124 222 -151 319 -54 22 22 43 54 47 71 l9 32 25 -49 c64 -124 222 -151
319 -54 22 22 43 54 48 72 l8 32 23 -47 c24 -51 72 -94 117 -106 26 -7 26 -7
-22 -32 -124 -64 -151 -222 -54 -319 22 -22 54 -43 72 -48 l32 -8 -48 -23
c-46 -23 -106 -89 -106 -118 0 -25 -15 -12 -36 30 -11 24 -39 55 -63 72 -37
26 -51 30 -110 30 -56 0 -74 -4 -108 -27 -75 -49 -107 -138 -84 -226 14 -52
76 -118 123 -130 l32 -8 -48 -23 c-46 -23 -106 -89 -106 -118 0 -25 -15 -12
-36 30 -11 24 -39 55 -63 72 -37 26 -51 30 -110 30 -56 0 -74 -4 -108 -27 -75
-49 -107 -138 -84 -226 14 -52 76 -118 123 -130 l32 -8 -48 -23 c-46 -23 -106
-89 -106 -118 0 -25 -15 -12 -36 30 -11 24 -39 55 -63 72 -37 26 -51 30 -111
30 -60 0 -74 -4 -111 -30 -24 -17 -52 -48 -63 -72 -12 -23 -23 -42 -26 -42 -3
0 -14 19 -26 42 -11 24 -39 55 -63 72 -37 26 -51 30 -109 30 -80 0 -129 -25
-170 -88 -23 -34 -27 -52 -27 -107 0 -55 4 -73 27 -107 49 -75 138 -107 226
-84 52 14 118 76 130 123 l8 32 23 -47 c24 -51 72 -94 117 -106 26 -7 26 -7
-22 -32 -124 -64 -151 -222 -54 -319 22 -22 54 -43 72 -48 l32 -8 -48 -23
c-46 -23 -106 -89 -106 -118 0 -25 -15 -12 -36 30 -11 24 -39 55 -63 72 -37
26 -51 30 -109 30 -80 0 -129 -25 -170 -88 -23 -34 -27 -52 -27 -107 0 -55 4
-73 27 -107 49 -75 138 -107 226 -84 52 14 118 76 129 122 l9 32 25 -49 c64
-124 222 -151 319 -54 22 22 43 54 48 72 l8 32 23 -47 c24 -51 72 -94 117
-106 26 -7 26 -7 -22 -32 -124 -64 -151 -222 -54 -319 22 -22 54 -43 71 -47
l32 -9 -49 -25 c-124 -64 -151 -222 -54 -319 22 -22 54 -43 71 -47 l32 -9 -49
-25 c-124 -64 -151 -222 -54 -319 22 -22 54 -43 71 -47 l32 -9 -49 -25 c-124
-64 -151 -222 -54 -319 22 -22 54 -43 71 -47 l32 -9 -49 -25 c-124 -64 -151
-222 -54 -319 22 -22 54 -43 71 -47 l32 -9 -49 -25 c-124 -64 -151 -222 -54
-319 22 -22 54 -43 71 -47 l32 -9 -49 -25 c-29 -15 -61 -42 -79 -68 -26 -37
-30 -51 -30 -110 0 -56 4 -74 27 -108 41 -62 90 -88 168 -88 78 0 127 26 168
88 23 34 27 52 27 108 0 59 -4 73 -30 110 -18 26 -50 53 -79 68 l-49 25 32 9
c17 4 49 25 71 47 97 97 70 255 -54 319 l-49 25 32 9 c17 4 49 25 71 47 97 97
70 255 -54 319 l-49 25 32 9 c41 10 108 77 118 118 l9 32 25 -49 c15 -29 42
-61 68 -79 37 -26 51 -30 109 -30 80 0 129 25 170 88 23 34 27 52 27 107 0 55
-4 73 -27 107 -41 63 -90 88 -170 88 -58 0 -72 -4 -109 -30 -24 -17 -52 -48
-63 -72 -21 -42 -36 -55 -36 -30 0 29 -60 95 -106 118 l-48 23 32 8 c18 5 50
26 72 48 97 97 70 255 -54 319 l-49 25 32 9 c17 4 49 25 71 47 97 97 70 255
-54 319 l-49 25 32 9 c41 10 108 77 118 118 l9 32 25 -49 c64 -124 222 -151
319 -54 22 22 43 54 47 71 l9 32 25 -49 c15 -29 42 -61 68 -79 37 -26 51 -30
110 -30 56 0 74 4 108 27 62 41 88 90 88 168 0 78 -26 127 -88 168 -34 23 -52
27 -108 27 -59 0 -73 -4 -110 -30 -24 -17 -52 -48 -63 -72 -12 -23 -23 -42
-26 -42 -3 0 -14 19 -26 42 -11 24 -39 55 -63 72 -37 26 -51 30 -111 30 -60 0
-74 -4 -111 -30 -24 -17 -52 -48 -63 -72 -21 -42 -36 -55 -36 -30 0 29 -60 95
-106 118 l-48 23 32 8 c18 5 50 26 72 48 97 97 70 255 -54 319 l-49 25 32 9
c41 10 108 77 118 118 l9 32 25 -49 c64 -124 222 -151 319 -54 22 22 43 54 47
71 l9 32 25 -49 c15 -29 42 -61 68 -79 37 -26 51 -30 110 -30 56 0 74 4 108
27 62 41 88 90 88 168 0 78 -26 127 -88 168 -34 23 -52 27 -108 27 -59 0 -73
-4 -110 -30 -24 -17 -52 -48 -63 -72 -12 -23 -23 -42 -26 -42 -3 0 -14 19 -26
42 -11 24 -39 55 -63 72 -37 26 -51 30 -111 30 -60 0 -74 -4 -111 -30 -24 -17
-52 -48 -63 -72 -21 -42 -36 -55 -36 -30 0 29 -60 95 -106 118 l-48 23 32 8
c18 5 50 26 72 48 97 97 70 255 -54 319 l-49 25 32 9 c41 10 108 77 118 118
l9 32 25 -49 c15 -29 42 -61 68 -79 37 -26 51 -30 110 -30 56 0 74 4 108 27
63 41 88 90 88 170 0 58 -4 72 -30 109 -18 26 -50 53 -79 68 l-49 25 32 9 c41
10 108 77 118 118 l9 32 25 -49 c64 -124 222 -151 319 -54 22 22 43 54 48 72
l8 32 23 -47 c24 -51 72 -94 117 -106 26 -7 26 -7 -22 -32 -29 -15 -61 -42
-79 -68 -26 -37 -30 -51 -30 -110 0 -56 4 -74 27 -108 41 -63 90 -88 169 -88
54 0 72 5 106 27 63 41 88 90 88 170 0 58 -4 72 -30 109 -18 26 -50 53 -79 68
l-49 25 32 9 c17 4 49 25 71 47 97 97 70 255 -54 319 l-49 25 32 9 c17 4 49
25 71 47 97 97 70 255 -54 319 l-49 25 32 9 c46 11 108 77 122 129 23 89 -12
182 -88 229 -30 19 -52 24 -105 24 -58 0 -72 -4 -109 -30 -24 -17 -52 -48 -63
-72 -21 -42 -36 -55 -36 -30 0 29 -60 95 -106 118 l-48 23 32 8 c18 5 50 26
72 48 97 97 70 255 -54 319 l-49 25 32 9 c17 4 49 25 71 47 97 97 70 255 -54
319 l-49 25 32 9 c46 11 108 77 122 129 23 89 -12 182 -88 229 -30 19 -52 24
-105 24 -58 0 -72 -4 -109 -30 -24 -17 -52 -48 -63 -72 -21 -42 -36 -55 -36
-30 0 29 -60 95 -106 118 l-48 23 32 8 c47 12 109 78 123 130 23 88 -9 177
-84 226 -34 23 -52 27 -108 27 -59 0 -73 -4 -110 -30 -24 -17 -52 -48 -63 -72
-12 -23 -23 -42 -26 -42 -3 0 -14 19 -26 42 -40 82 -148 125 -242 96z m1088
-1874 c24 -49 72 -92 116 -104 28 -7 28 -7 -20 -30 -46 -23 -106 -89 -106
-118 0 -7 -4 -13 -10 -13 -5 0 -10 6 -10 13 0 29 -60 95 -106 118 l-48 23 32
8 c42 11 111 80 119 118 3 17 7 30 8 30 2 0 13 -20 25 -45z m-3200 -400 c24
-49 72 -92 116 -104 28 -7 28 -7 -20 -30 -46 -23 -106 -89 -106 -118 0 -7 -4
-13 -10 -13 -5 0 -10 6 -10 13 0 29 -60 95 -106 118 l-48 23 32 8 c42 11 111
80 119 118 3 17 7 30 8 30 2 0 13 -20 25 -45z m3200 0 c24 -49 72 -92 116
-104 28 -7 28 -7 -20 -30 -46 -23 -106 -89 -106 -118 0 -7 -4 -13 -10 -13 -5
0 -10 6 -10 13 0 29 -60 95 -106 118 l-48 23 32 8 c42 11 111 80 119 118 3 17
7 30 8 30 2 0 13 -20 25 -45z m-3997 -1206 c63 -119 222 -144 317 -49 22 22
43 54 47 71 l9 32 25 -49 c64 -124 222 -151 319 -54 22 22 43 54 47 71 l9 32
25 -49 c64 -124 222 -151 319 -54 22 22 43 54 48 72 l8 32 23 -47 c24 -51 72
-94 117 -106 26 -7 26 -7 -22 -32 -124 -64 -151 -222 -54 -319 22 -22 54 -43
72 -48 l32 -8 -48 -23 c-46 -23 -106 -89 -106 -118 0 -25 -15 -12 -36 30 -11
24 -39 55 -63 72 -37 26 -51 30 -111 30 -60 0 -74 -4 -111 -30 -24 -17 -52
-48 -63 -72 -12 -23 -23 -42 -26 -42 -3 0 -14 19 -26 42 -11 24 -39 55 -63 72
-37 26 -51 30 -111 30 -60 0 -74 -4 -111 -30 -24 -17 -52 -48 -63 -72 -12 -23
-23 -42 -26 -42 -3 0 -14 19 -26 42 -11 24 -39 55 -63 72 -37 26 -51 30 -111
30 -60 0 -74 -4 -111 -30 -24 -17 -52 -48 -63 -72 -21 -42 -36 -55 -36 -30 0
29 -60 95 -106 118 l-48 23 32 8 c18 5 50 26 72 48 97 97 70 255 -54 319 l-49
25 32 9 c41 10 110 79 118 118 7 35 6 35 36 -22z m2797 6 c24 -49 72 -92 116
-104 28 -7 28 -7 -20 -30 -46 -23 -106 -89 -106 -118 0 -7 -4 -13 -10 -13 -5
0 -10 6 -10 13 0 29 -60 95 -106 118 l-48 23 32 8 c42 11 111 80 119 118 3 17
7 30 8 30 2 0 13 -20 25 -45z m0 -400 c24 -49 72 -92 116 -104 28 -7 28 -7
-20 -30 -46 -23 -106 -89 -106 -118 0 -7 -4 -13 -10 -13 -5 0 -10 6 -10 13 0
29 -60 95 -106 118 l-48 23 32 8 c42 11 111 80 119 118 3 17 7 30 8 30 2 0 13
-20 25 -45z"/>
<path d="M4132 8389 c-48 -14 -109 -80 -123 -131 -23 -89 12 -182 88 -229 57
-36 154 -34 210 3 62 41 88 90 88 168 0 77 -26 127 -85 166 -43 29 -125 39
-178 23z"/>
<path d="M6532 8389 c-48 -14 -109 -80 -123 -131 -23 -89 12 -182 88 -229 57
-36 154 -34 210 3 62 41 88 90 88 168 0 77 -26 127 -85 166 -43 29 -125 39
-178 23z"/>
<path d="M932 7589 c-48 -14 -109 -80 -123 -131 -23 -89 12 -182 88 -229 57
-36 154 -34 210 3 62 41 88 90 88 168 0 77 -26 127 -85 166 -43 29 -125 39
-178 23z"/>
<path d="M6532 7589 c-48 -14 -109 -80 -123 -131 -23 -89 12 -182 88 -229 57
-36 154 -34 210 3 62 41 88 90 88 168 0 77 -26 127 -85 166 -43 29 -125 39
-178 23z"/>
<path d="M8932 7589 c-69 -21 -132 -111 -132 -189 0 -78 65 -170 132 -188 l32
-8 -48 -23 c-46 -23 -106 -89 -106 -118 0 -25 -15 -12 -36 30 -11 24 -39 55
-63 72 -37 26 -51 30 -110 30 -56 0 -74 -4 -108 -27 -75 -49 -107 -138 -84
-226 14 -52 76 -118 123 -130 l32 -8 -48 -23 c-46 -23 -106 -89 -106 -118 0
-25 -15 -12 -36 30 -11 24 -39 55 -63 72 -37 26 -51 30 -109 30 -80 0 -129
-25 -170 -88 -23 -34 -27 -52 -27 -107 0 -55 4 -73 27 -107 49 -75 138 -107
226 -84 52 14 118 76 130 123 l8 32 23 -47 c24 -51 72 -94 117 -106 26 -7 26
-7 -22 -32 -29 -15 -61 -42 -79 -68 -26 -37 -30 -51 -30 -110 0 -56 4 -74 27
-108 41 -62 90 -88 168 -88 78 0 127 26 168 88 23 34 27 52 27 108 0 59 -4 73
-30 110 -18 26 -50 53 -79 68 l-49 25 32 9 c17 4 49 25 71 47 97 97 70 255
-54 319 l-49 25 32 9 c41 10 108 77 118 118 l9 32 25 -49 c64 -124 222 -151
319 -54 22 22 43 54 48 72 l8 32 23 -47 c24 -51 72 -94 117 -106 26 -7 26 -7
-22 -32 -124 -64 -151 -222 -54 -319 22 -22 54 -43 71 -47 l32 -9 -49 -25
c-29 -15 -61 -42 -79 -68 -26 -37 -30 -51 -30 -110 0 -56 4 -74 27 -108 49
-75 138 -107 226 -84 52 14 118 76 129 122 l9 32 25 -49 c64 -124 222 -151
319 -54 22 22 43 54 47 71 l9 32 25 -49 c64 -124 222 -151 319 -54 22 22 43
54 48 72 l8 32 23 -47 c24 -51 72 -94 117 -106 26 -7 26 -7 -22 -32 -29 -15
-61 -42 -79 -68 -26 -37 -30 -51 -30 -109 0 -80 25 -129 88 -170 34 -23 52
-27 107 -27 55 0 73 4 107 27 63 41 88 90 88 170 0 58 -4 72 -30 109 -18 26
-50 53 -79 68 l-49 25 32 9 c17 4 49 25 71 47 97 97 70 255 -54 319 l-49 25
32 9 c46 11 108 77 122 129 23 88 -9 177 -84 226 -34 23 -52 27 -107 27 -55 0
-73 -4 -107 -27 -75 -49 -107 -138 -84 -226 14 -52 76 -118 123 -130 l32 -8
-48 -23 c-46 -23 -106 -89 -106 -118 0 -25 -15 -12 -36 30 -11 24 -39 55 -63
72 -37 26 -51 30 -111 30 -60 0 -74 -4 -111 -30 -24 -17 -52 -48 -63 -72 -12
-23 -23 -42 -26 -42 -3 0 -14 19 -26 42 -11 24 -39 55 -63 72 -37 26 -51 30
-111 30 -60 0 -74 -4 -111 -30 -24 -17 -52 -48 -63 -72 -21 -42 -36 -55 -36
-30 0 29 -60 95 -106 118 l-48 23 32 8 c18 5 50 26 72 48 97 97 70 255 -54
319 l-49 25 32 9 c41 10 108 77 118 118 l9 32 25 -49 c64 -124 222 -151 319
-54 22 22 43 54 47 71 l9 32 25 -49 c15 -29 42 -61 68 -79 37 -26 51 -30 110
-30 56 0 74 4 108 27 63 41 88 90 88 170 0 58 -4 72 -30 109 -18 26 -50 53
-79 68 l-49 25 32 9 c41 10 108 77 118 118 l9 32 25 -49 c15 -29 42 -61 68
-79 37 -26 51 -30 110 -30 56 0 74 4 108 27 62 41 88 90 88 168 0 78 -26 127
-88 168 -34 23 -52 27 -108 27 -59 0 -73 -4 -110 -30 -24 -17 -52 -48 -63 -72
-12 -23 -23 -42 -26 -42 -3 0 -14 19 -26 42 -11 24 -39 55 -63 72 -37 26 -51
30 -111 30 -60 0 -74 -4 -111 -30 -24 -17 -52 -48 -63 -72 -12 -23 -23 -42
-26 -42 -3 0 -14 19 -26 42 -11 24 -39 55 -63 72 -37 26 -51 30 -110 30 -56 0
-74 -4 -108 -27 -75 -49 -107 -138 -84 -226 14 -52 76 -118 123 -130 l32 -8
-48 -23 c-46 -23 -106 -89 -106 -118 0 -25 -15 -12 -36 30 -11 24 -39 55 -63
72 -37 26 -51 30 -111 30 -60 0 -74 -4 -111 -30 -24 -17 -52 -48 -63 -72 -21
-42 -36 -55 -36 -30 0 29 -60 95 -106 118 l-48 23 32 8 c47 12 109 78 123 130
33 126 -47 244 -172 253 -30 3 -69 0 -87 -6z m1088 -274 c24 -49 72 -92 116
-104 28 -7 28 -7 -20 -30 -46 -23 -106 -89 -106 -118 0 -7 -4 -13 -10 -13 -5
0 -10 6 -10 13 0 29 -60 95 -106 118 l-48 23 32 8 c42 11 111 80 119 118 3 17
7 30 8 30 2 0 13 -20 25 -45z"/>
<path d="M6932 7189 c-69 -21 -132 -111 -132 -189 0 -78 65 -170 131 -187 l32
-9 -49 -25 c-124 -64 -151 -222 -54 -319 22 -22 54 -43 72 -48 l32 -8 -48 -23
c-46 -23 -106 -89 -106 -118 0 -25 -15 -12 -36 30 -11 24 -39 55 -63 72 -37
26 -51 30 -109 30 -80 0 -129 -25 -170 -88 -37 -56 -39 -153 -3 -210 47 -76
140 -111 229 -88 52 14 118 76 130 123 l8 32 23 -47 c24 -51 72 -94 117 -106
26 -7 26 -7 -22 -32 -124 -64 -151 -222 -54 -319 22 -22 54 -43 72 -48 l32 -8
-48 -23 c-46 -23 -106 -89 -106 -118 0 -25 -15 -12 -36 30 -11 24 -39 55 -63
72 -37 26 -51 30 -111 30 -60 0 -74 -4 -111 -30 -24 -17 -52 -48 -63 -72 -12
-23 -23 -42 -26 -42 -3 0 -14 19 -26 42 -11 24 -39 55 -63 72 -37 26 -51 30
-111 30 -60 0 -74 -4 -111 -30 -24 -17 -52 -48 -63 -72 -21 -42 -36 -55 -36
-30 0 29 -60 95 -106 118 l-48 23 32 8 c47 12 109 78 123 130 23 88 -9 177
-84 226 -34 23 -52 27 -107 27 -55 0 -73 -4 -107 -27 -75 -49 -107 -138 -84
-226 14 -52 76 -118 122 -129 l32 -9 -49 -25 c-29 -15 -61 -42 -79 -68 -26
-37 -30 -51 -30 -109 0 -53 5 -75 24 -105 47 -76 140 -111 229 -88 52 14 118
76 130 123 l8 32 23 -47 c24 -51 72 -94 117 -106 26 -7 26 -7 -22 -32 -29 -15
-61 -42 -79 -68 -26 -37 -30 -51 -30 -110 0 -56 4 -74 27 -108 49 -75 138
-107 226 -84 52 14 118 76 129 122 l9 32 25 -49 c64 -124 222 -151 319 -54 22
22 43 54 47 71 l9 32 25 -49 c15 -29 42 -61 68 -79 37 -26 51 -30 110 -30 56
0 74 4 108 27 63 41 88 90 88 170 0 58 -4 72 -30 109 -18 26 -50 53 -79 68
l-49 25 32 9 c41 10 108 77 118 118 l9 32 25 -49 c15 -29 42 -61 68 -79 37
-26 51 -30 110 -30 56 0 74 4 108 27 63 41 88 90 88 169 0 54 -5 72 -27 106
-41 63 -90 88 -170 88 -58 0 -72 -4 -109 -30 -24 -17 -52 -48 -63 -72 -21 -42
-36 -55 -36 -30 0 29 -60 95 -106 118 l-48 23 32 8 c18 5 50 26 72 48 97 97
70 255 -54 319 l-49 25 32 9 c41 10 108 77 118 118 l9 32 25 -49 c15 -29 42
-61 68 -79 37 -26 51 -30 110 -30 56 0 74 4 108 27 63 41 88 90 88 169 0 54
-5 72 -27 106 -41 63 -90 88 -170 88 -58 0 -72 -4 -109 -30 -24 -17 -52 -48
-63 -72 -21 -42 -36 -55 -36 -30 0 29 -60 95 -106 118 l-48 23 32 8 c18 5 50
26 72 48 97 97 70 255 -54 319 l-49 25 32 9 c46 11 108 77 122 129 33 126 -47
244 -172 253 -30 3 -69 0 -87 -6z m-512 -1874 c24 -49 72 -92 116 -104 28 -7
28 -7 -20 -30 -46 -23 -106 -89 -106 -118 0 -7 -4 -13 -10 -13 -5 0 -10 6 -10
13 0 29 -60 95 -106 118 l-48 23 32 8 c42 11 111 80 119 118 3 17 7 30 8 30 2
0 13 -20 25 -45z m400 0 c24 -49 72 -92 116 -104 28 -7 28 -7 -20 -30 -46 -23
-106 -89 -106 -118 0 -7 -4 -13 -10 -13 -5 0 -10 6 -10 13 0 29 -60 95 -106
118 l-48 23 32 8 c42 11 111 80 119 118 3 17 7 30 8 30 2 0 13 -20 25 -45z"/>
<path d="M932 6789 c-48 -14 -109 -80 -123 -131 -23 -89 12 -182 88 -229 57
-36 154 -34 210 3 62 41 88 90 88 168 0 77 -26 127 -85 166 -43 29 -125 39
-178 23z"/>
<path d="M6132 6789 c-48 -14 -109 -80 -123 -131 -23 -89 12 -182 88 -229 57
-36 154 -34 210 3 62 41 88 90 88 168 0 77 -26 127 -85 166 -43 29 -125 39
-178 23z"/>
<path d="M7732 5989 c-48 -14 -109 -80 -123 -131 -41 -156 93 -290 249 -249
52 14 118 76 129 122 l9 32 25 -49 c15 -29 42 -61 68 -79 37 -26 51 -30 110
-30 56 0 74 4 108 27 62 41 88 90 88 168 0 78 -26 127 -88 168 -34 23 -52 27
-108 27 -59 0 -73 -4 -110 -30 -24 -17 -52 -48 -63 -72 -12 -23 -23 -42 -26
-42 -3 0 -14 19 -26 42 -40 82 -148 125 -242 96z"/>
<path d="M8932 5589 c-69 -21 -132 -111 -132 -189 0 -78 65 -170 131 -187 l32
-9 -49 -25 c-124 -64 -151 -222 -54 -319 22 -22 54 -43 72 -48 l32 -8 -48 -23
c-46 -23 -106 -89 -106 -118 0 -25 -15 -12 -36 30 -11 24 -39 55 -63 72 -37
26 -51 30 -109 30 -53 0 -75 -5 -105 -24 -76 -47 -111 -140 -88 -229 14 -52
76 -118 123 -130 l32 -8 -48 -23 c-46 -23 -106 -89 -106 -118 0 -25 -15 -12
-36 30 -11 24 -39 55 -63 72 -37 26 -51 30 -111 30 -60 0 -74 -4 -111 -30 -24
-17 -52 -48 -63 -72 -12 -23 -23 -42 -26 -42 -3 0 -14 19 -26 42 -11 24 -39
55 -63 72 -37 26 -51 30 -111 30 -60 0 -74 -4 -111 -30 -24 -17 -52 -48 -63
-72 -21 -42 -36 -55 -36 -30 0 29 -60 95 -106 118 l-48 23 32 8 c47 12 109 78
123 130 23 88 -9 177 -84 226 -34 23 -52 27 -107 27 -55 0 -73 -4 -107 -27
-75 -49 -107 -138 -84 -226 14 -52 76 -118 123 -130 l32 -8 -48 -23 c-46 -23
-106 -89 -106 -118 0 -25 -15 -12 -36 30 -11 24 -39 55 -63 72 -37 26 -51 30
-110 30 -56 0 -74 -4 -108 -27 -63 -41 -88 -90 -88 -169 0 -54 5 -72 27 -106
49 -75 138 -107 226 -84 52 14 118 76 130 123 l8 32 23 -47 c24 -51 72 -94
117 -106 26 -7 26 -7 -22 -32 -124 -64 -151 -222 -54 -319 22 -22 54 -43 71
-47 l32 -9 -49 -25 c-124 -64 -151 -222 -54 -319 22 -22 54 -43 72 -48 l32 -8
-48 -23 c-46 -23 -106 -89 -106 -118 0 -25 -15 -12 -36 30 -11 24 -39 55 -63
72 -37 26 -51 30 -110 30 -56 0 -74 -4 -108 -27 -75 -49 -107 -138 -84 -226
14 -52 76 -118 123 -130 l32 -8 -48 -23 c-46 -23 -106 -89 -106 -118 0 -25
-15 -12 -36 30 -11 24 -39 55 -63 72 -37 26 -51 30 -109 30 -80 0 -129 -25
-170 -88 -23 -34 -27 -52 -27 -107 0 -55 4 -73 27 -107 49 -75 138 -107 226
-84 52 14 118 76 129 122 l9 32 25 -49 c64 -124 222 -151 319 -54 22 22 43 54
48 72 l8 32 23 -47 c24 -51 72 -94 117 -106 26 -7 26 -7 -22 -32 -124 -64
-151 -222 -54 -319 22 -22 54 -43 72 -48 l32 -8 -48 -23 c-46 -23 -106 -89
-106 -118 0 -25 -15 -12 -36 30 -11 24 -39 55 -63 72 -37 26 -51 30 -110 30
-56 0 -74 -4 -108 -27 -62 -41 -88 -90 -88 -168 0 -51 5 -73 24 -103 47 -76
140 -111 229 -88 52 14 118 76 129 122 l9 32 25 -49 c64 -124 222 -151 319
-54 22 22 43 54 48 72 l8 32 23 -47 c24 -51 72 -94 117 -106 26 -7 26 -7 -22
-32 -29 -15 -61 -42 -79 -68 -26 -37 -30 -51 -30 -109 0 -53 5 -75 24 -105 47
-76 140 -111 229 -88 52 14 118 76 129 122 l9 32 25 -49 c64 -124 222 -151
319 -54 22 22 43 54 47 71 l9 32 25 -49 c64 -124 222 -151 319 -54 22 22 43
54 47 71 l9 32 25 -49 c15 -29 42 -61 68 -79 37 -26 51 -30 110 -30 56 0 74 4
108 27 63 41 88 90 88 170 0 58 -4 72 -30 109 -18 26 -50 53 -79 68 l-49 25
32 9 c46 11 108 77 122 129 23 88 -9 177 -84 226 -34 23 -52 27 -108 27 -59 0
-73 -4 -110 -30 -24 -17 -52 -48 -63 -72 -21 -42 -36 -55 -36 -30 0 29 -60 95
-106 118 l-48 23 32 8 c18 5 50 26 72 48 97 97 70 255 -54 319 l-49 25 32 9
c41 10 108 77 118 118 l9 32 25 -49 c64 -124 222 -151 319 -54 22 22 43 54 48
72 l8 32 23 -47 c24 -51 72 -94 117 -106 26 -7 26 -7 -22 -32 -29 -15 -61 -42
-79 -68 -26 -37 -30 -51 -30 -109 0 -80 25 -129 88 -170 34 -23 52 -27 107
-27 55 0 73 4 107 27 63 41 88 90 88 170 0 58 -4 72 -30 109 -18 26 -50 53
-79 68 l-49 25 32 9 c46 11 108 77 122 129 23 88 -9 177 -84 226 -34 23 -52
27 -108 27 -59 0 -73 -4 -110 -30 -24 -17 -52 -48 -63 -72 -21 -42 -36 -55
-36 -30 0 29 -60 95 -106 118 l-48 23 32 8 c18 5 50 26 72 48 97 97 70 255
-54 319 l-49 25 32 9 c41 10 108 77 118 118 l9 32 25 -49 c15 -29 42 -61 68
-79 37 -26 51 -30 110 -30 56 0 74 4 108 27 62 41 88 90 88 168 0 78 -26 127
-88 168 -34 23 -52 27 -108 27 -59 0 -73 -4 -110 -30 -24 -17 -52 -48 -63 -72
-21 -42 -36 -55 -36 -30 0 29 -60 95 -106 118 l-48 23 32 8 c18 5 50 26 72 48
97 97 70 255 -54 319 l-49 25 32 9 c17 4 49 25 71 47 97 97 70 255 -54 319
l-49 25 32 9 c17 4 49 25 71 47 97 97 70 255 -54 319 l-49 25 32 9 c41 10 108
77 118 118 l9 32 25 -49 c64 -124 222 -151 319 -54 22 22 43 54 48 72 l8 32
23 -47 c24 -51 72 -94 117 -106 26 -7 26 -7 -22 -32 -124 -64 -151 -222 -54
-319 22 -22 54 -43 71 -47 l32 -9 -49 -25 c-29 -15 -61 -42 -79 -68 -26 -37
-30 -51 -30 -110 0 -56 4 -74 27 -108 49 -75 138 -107 226 -84 52 14 118 76
130 123 l8 32 23 -47 c24 -51 72 -94 117 -106 26 -7 26 -7 -22 -32 -29 -15
-61 -42 -79 -68 -26 -37 -30 -51 -30 -109 0 -80 25 -129 88 -170 34 -23 52
-27 107 -27 55 0 73 4 107 27 63 41 88 90 88 170 0 58 -4 72 -30 109 -18 26
-50 53 -79 68 l-49 25 32 9 c46 11 108 77 122 129 23 88 -9 177 -84 226 -34
23 -52 27 -108 27 -59 0 -73 -4 -110 -30 -24 -17 -52 -48 -63 -72 -21 -42 -36
-55 -36 -30 0 29 -60 95 -106 118 l-48 23 32 8 c18 5 50 26 72 48 97 97 70
255 -54 319 l-49 25 32 9 c41 10 108 77 118 118 l9 32 25 -49 c64 -124 222
-151 319 -54 22 22 43 54 48 72 l8 32 23 -47 c24 -51 72 -94 117 -106 26 -7
26 -7 -22 -32 -29 -15 -61 -42 -79 -68 -26 -37 -30 -51 -30 -110 0 -56 4 -74
27 -108 41 -63 90 -88 169 -88 54 0 72 5 106 27 63 41 88 90 88 170 0 58 -4
72 -30 109 -18 26 -50 53 -79 68 l-49 25 32 9 c46 11 108 77 122 129 23 88 -9
177 -84 226 -34 23 -52 27 -108 27 -59 0 -73 -4 -110 -30 -24 -17 -52 -48 -63
-72 -21 -42 -36 -55 -36 -30 0 29 -60 95 -106 118 l-48 23 32 8 c47 12 109 78
123 130 23 88 -9 177 -84 226 -56 37 -153 39 -210 3 -76 -47 -111 -140 -88
-229 14 -52 76 -118 123 -130 l32 -8 -48 -23 c-46 -23 -106 -89 -106 -118 0
-25 -15 -12 -36 30 -11 24 -39 55 -63 72 -37 26 -51 30 -111 30 -60 0 -74 -4
-111 -30 -24 -17 -52 -48 -63 -72 -12 -23 -23 -42 -26 -42 -3 0 -14 19 -26 42
-11 24 -39 55 -63 72 -37 26 -51 30 -111 30 -60 0 -74 -4 -111 -30 -24 -17
-52 -48 -63 -72 -21 -42 -36 -55 -36 -30 0 29 -60 95 -106 118 l-48 23 32 8
c47 12 109 78 123 130 23 88 -12 182 -85 227 -41 26 -125 35 -174 20z m-112
-1074 c24 -49 72 -92 116 -104 28 -7 28 -7 -20 -30 -46 -23 -106 -89 -106
-118 0 -7 -4 -13 -10 -13 -5 0 -10 6 -10 13 0 29 -60 95 -106 118 l-48 23 32
8 c42 11 111 80 119 118 3 17 7 30 8 30 2 0 13 -20 25 -45z m-1197 -406 c63
-119 222 -144 317 -49 22 22 43 54 47 71 l9 32 25 -49 c64 -124 222 -151 319
-54 22 22 43 54 47 71 l9 32 25 -49 c64 -124 222 -151 319 -54 22 22 43 54 48
72 l8 32 23 -47 c24 -51 72 -94 117 -106 26 -7 26 -7 -22 -32 -124 -64 -151
-222 -54 -319 22 -22 54 -43 71 -47 l32 -9 -49 -25 c-124 -64 -151 -222 -54
-319 22 -22 54 -43 71 -47 l32 -9 -49 -25 c-124 -64 -151 -222 -54 -319 22
-22 54 -43 72 -48 l32 -8 -48 -23 c-46 -23 -106 -89 -106 -118 0 -25 -15 -12
-36 30 -11 24 -39 55 -63 72 -37 26 -51 30 -111 30 -60 0 -74 -4 -111 -30 -24
-17 -52 -48 -63 -72 -12 -23 -23 -42 -26 -42 -3 0 -14 19 -26 42 -11 24 -39
55 -63 72 -37 26 -51 30 -111 30 -60 0 -74 -4 -111 -30 -24 -17 -52 -48 -63
-72 -12 -23 -23 -42 -26 -42 -3 0 -14 19 -26 42 -11 24 -39 55 -63 72 -37 26
-51 30 -111 30 -60 0 -74 -4 -111 -30 -24 -17 -52 -48 -63 -72 -21 -42 -36
-55 -36 -30 0 29 -60 95 -106 118 l-48 23 32 8 c18 5 50 26 72 48 97 97 70
255 -54 319 l-49 25 32 9 c17 4 49 25 71 47 97 97 70 255 -54 319 l-49 25 32
9 c17 4 49 25 71 47 97 97 70 255 -54 319 l-49 25 32 9 c41 10 110 79 118 118
7 35 6 35 36 -22z m-403 -1194 c24 -49 72 -92 116 -104 28 -7 28 -7 -20 -30
-46 -23 -106 -89 -106 -118 0 -7 -4 -13 -10 -13 -5 0 -10 6 -10 13 0 29 -60
95 -106 118 l-48 23 32 8 c42 11 111 80 119 118 3 17 7 30 8 30 2 0 13 -20 25
-45z m400 -400 c24 -49 72 -92 116 -104 28 -7 28 -7 -20 -30 -46 -23 -106 -89
-106 -118 0 -7 -4 -13 -10 -13 -5 0 -10 6 -10 13 0 29 -60 95 -106 118 l-48
23 32 8 c42 11 111 80 119 118 3 17 7 30 8 30 2 0 13 -20 25 -45z m400 0 c24
-49 72 -92 116 -104 28 -7 28 -7 -20 -30 -46 -23 -106 -89 -106 -118 0 -7 -4
-13 -10 -13 -5 0 -10 6 -10 13 0 29 -60 95 -106 118 l-48 23 32 8 c42 11 111
80 119 118 3 17 7 30 8 30 2 0 13 -20 25 -45z m400 0 c24 -49 72 -92 116 -104
28 -7 28 -7 -20 -30 -46 -23 -106 -89 -106 -118 0 -7 -4 -13 -10 -13 -5 0 -10
6 -10 13 0 29 -60 95 -106 118 l-48 23 32 8 c42 11 111 80 119 118 3 17 7 30
8 30 2 0 13 -20 25 -45z m-800 -400 c24 -49 72 -92 116 -104 28 -7 28 -7 -20
-30 -46 -23 -106 -89 -106 -118 0 -7 -4 -13 -10 -13 -5 0 -10 6 -10 13 0 29
-60 95 -106 118 l-48 23 32 8 c42 11 111 80 119 118 3 17 7 30 8 30 2 0 13
-20 25 -45z m403 -6 c44 -84 141 -125 235 -100 52 14 118 76 130 123 l8 32 23
-47 c24 -51 72 -94 117 -106 26 -7 26 -7 -22 -32 -124 -64 -151 -222 -54 -319
22 -22 54 -43 72 -48 l32 -8 -48 -23 c-46 -23 -106 -89 -106 -118 0 -25 -15
-12 -36 30 -11 24 -39 55 -63 72 -37 26 -51 30 -111 30 -60 0 -74 -4 -111 -30
-24 -17 -52 -48 -63 -72 -21 -42 -36 -55 -36 -30 0 29 -60 95 -106 118 l-48
23 32 8 c18 5 50 26 72 48 97 97 70 255 -54 319 l-49 25 32 9 c41 10 110 79
118 118 7 35 6 35 36 -22z m797 -394 c24 -49 72 -92 116 -104 28 -7 28 -7 -20
-30 -46 -23 -106 -89 -106 -118 0 -7 -4 -13 -10 -13 -5 0 -10 6 -10 13 0 29
-60 95 -106 118 l-48 23 32 8 c42 11 111 80 119 118 3 17 7 30 8 30 2 0 13
-20 25 -45z"/>
<path d="M8132 3589 c-48 -14 -109 -80 -123 -131 -23 -89 12 -182 88 -229 57
-36 154 -34 210 3 62 41 88 90 88 168 0 77 -26 127 -85 166 -43 29 -125 39
-178 23z"/>
<path d="M7732 5189 c-48 -14 -109 -80 -123 -131 -23 -89 12 -182 88 -229 57
-36 154 -34 210 3 62 41 88 90 88 168 0 77 -26 127 -85 166 -43 29 -125 39
-178 23z"/>
<path d="M1732 4389 c-48 -14 -109 -80 -123 -131 -23 -89 12 -182 88 -229 57
-36 154 -34 210 3 62 41 88 90 88 168 0 77 -26 127 -85 166 -43 29 -125 39
-178 23z"/>
<path d="M3332 4389 c-48 -14 -109 -80 -123 -131 -23 -89 12 -182 88 -229 57
-36 154 -34 210 3 62 41 88 90 88 168 0 77 -26 127 -85 166 -43 29 -125 39
-178 23z"/>
<path d="M5332 4389 c-48 -14 -109 -80 -123 -131 -41 -156 93 -290 249 -249
52 14 118 76 129 122 l9 32 25 -49 c64 -124 222 -151 319 -54 22 22 43 54 47
71 l9 32 25 -49 c15 -29 42 -61 68 -79 37 -26 51 -30 109 -30 80 0 129 25 170
88 23 34 27 52 27 107 0 55 -4 73 -27 107 -41 63 -90 88 -170 88 -58 0 -72 -4
-109 -30 -24 -17 -52 -48 -63 -72 -12 -23 -23 -42 -26 -42 -3 0 -14 19 -26 42
-11 24 -39 55 -63 72 -37 26 -51 30 -111 30 -60 0 -74 -4 -111 -30 -24 -17
-52 -48 -63 -72 -12 -23 -23 -42 -26 -42 -3 0 -14 19 -26 42 -40 82 -148 125
-242 96z"/>
<path d="M4932 3989 c-48 -14 -109 -80 -123 -131 -23 -89 12 -182 88 -229 57
-36 154 -34 210 3 62 41 88 90 88 168 0 77 -26 127 -85 166 -43 29 -125 39
-178 23z"/>
<path d="M1593 3585 c-382 -69 -673 -342 -770 -721 -16 -62 -18 -129 -18 -669
0 -591 1 -601 23 -680 104 -371 393 -634 771 -700 118 -21 1088 -21 1203 0
265 47 489 190 637 407 48 71 108 203 133 293 23 79 23 88 23 685 0 597 0 606
-23 685 -104 372 -393 634 -771 700 -114 20 -1098 20 -1208 0z m1153 -416
c158 -29 304 -139 374 -283 22 -44 45 -105 50 -135 13 -71 13 -1031 0 -1102
-5 -30 -28 -91 -50 -135 -69 -142 -219 -255 -374 -283 -81 -15 -1011 -15
-1092 0 -155 28 -305 141 -374 283 -22 44 -45 105 -50 135 -6 31 -10 267 -10
560 0 551 1 566 58 681 37 76 151 189 231 230 112 56 138 58 682 59 318 1 517
-3 555 -10z"/>
<path d="M2042 2780 c-217 -58 -379 -228 -428 -447 -79 -356 199 -704 566
-707 168 -1 302 54 421 173 119 119 174 253 173 421 -2 246 -160 465 -395 547
-102 35 -237 41 -337 13z"/>
<path d="M5332 3589 c-48 -14 -109 -80 -123 -131 -23 -89 12 -182 88 -229 57
-36 154 -34 210 3 62 41 88 90 88 168 0 77 -26 127 -85 166 -43 29 -125 39
-178 23z"/>
<path d="M6132 3589 c-69 -21 -132 -111 -132 -189 0 -78 65 -170 131 -187 l32
-9 -49 -25 c-29 -15 -61 -42 -79 -68 -26 -37 -30 -51 -30 -110 0 -56 4 -74 27
-108 41 -62 90 -88 168 -88 78 0 127 26 168 88 23 34 27 52 27 108 0 59 -4 73
-30 110 -18 26 -50 53 -79 68 l-49 25 32 9 c46 11 108 77 122 129 33 126 -47
244 -172 253 -30 3 -69 0 -87 -6z"/>
<path d="M10532 3589 c-48 -14 -109 -80 -123 -131 -23 -89 12 -182 88 -229 57
-36 154 -34 210 3 62 41 88 90 88 168 0 77 -26 127 -85 166 -43 29 -125 39
-178 23z"/>
<path d="M4932 2789 c-48 -14 -109 -80 -123 -131 -41 -156 93 -290 249 -249
52 14 118 76 130 123 l8 32 23 -47 c24 -51 72 -94 117 -106 26 -7 26 -7 -22
-32 -124 -64 -151 -222 -54 -319 22 -22 54 -43 71 -47 l32 -9 -49 -25 c-29
-15 -61 -42 -79 -68 -26 -37 -30 -51 -30 -109 0 -53 5 -75 24 -105 47 -76 140
-111 229 -88 52 14 118 76 129 122 l9 32 25 -49 c15 -29 42 -61 68 -79 37 -26
51 -30 110 -30 56 0 74 4 108 27 63 41 88 90 88 169 0 54 -5 72 -27 106 -41
63 -90 88 -170 88 -58 0 -72 -4 -109 -30 -24 -17 -52 -48 -63 -72 -21 -42 -36
-55 -36 -30 0 29 -60 95 -106 118 l-48 23 32 8 c18 5 50 26 72 48 97 97 70
255 -54 319 l-49 25 32 9 c41 10 108 77 118 118 l9 32 25 -49 c15 -29 42 -61
68 -79 37 -26 51 -30 109 -30 80 0 129 25 170 88 23 34 27 52 27 107 0 55 -4
73 -27 107 -41 63 -90 88 -170 88 -58 0 -72 -4 -109 -30 -24 -17 -52 -48 -63
-72 -12 -23 -23 -42 -26 -42 -3 0 -14 19 -26 42 -11 24 -39 55 -63 72 -37 26
-51 30 -111 30 -60 0 -74 -4 -111 -30 -24 -17 -52 -48 -63 -72 -12 -23 -23
-42 -26 -42 -3 0 -14 19 -26 42 -40 82 -148 125 -242 96z"/>
<path d="M10132 2389 c-69 -21 -132 -111 -132 -189 0 -78 65 -170 132 -188
l32 -8 -48 -23 c-46 -23 -106 -89 -106 -118 0 -25 -15 -12 -36 30 -11 24 -39
55 -63 72 -37 26 -51 30 -110 30 -56 0 -74 -4 -108 -27 -75 -49 -107 -138 -84
-226 14 -52 76 -118 122 -129 l32 -9 -49 -25 c-29 -15 -61 -42 -79 -68 -26
-37 -30 -51 -30 -109 0 -53 5 -75 24 -105 47 -76 140 -111 229 -88 52 14 118
76 129 122 l9 32 25 -49 c64 -124 222 -151 319 -54 22 22 43 54 48 72 l8 32
23 -47 c24 -51 72 -94 117 -106 26 -7 26 -7 -22 -32 -29 -15 -61 -42 -79 -68
-26 -37 -30 -51 -30 -110 0 -56 4 -74 27 -108 41 -62 90 -88 168 -88 78 0 127
26 168 88 23 34 27 52 27 108 0 59 -4 73 -30 110 -18 26 -50 53 -79 68 l-49
25 32 9 c17 4 49 25 71 47 97 97 70 255 -54 319 l-49 25 32 9 c17 4 49 25 71
47 97 97 70 255 -54 319 l-49 25 32 9 c46 11 108 77 122 129 23 88 -9 177 -84
226 -34 23 -52 27 -108 27 -59 0 -73 -4 -110 -30 -24 -17 -52 -48 -63 -72 -12
-23 -23 -42 -26 -42 -3 0 -14 19 -26 42 -40 82 -148 125 -242 96z m288 -274
c24 -49 72 -92 116 -104 28 -7 28 -7 -20 -30 -46 -23 -106 -89 -106 -118 0 -7
-4 -13 -10 -13 -5 0 -10 6 -10 13 0 29 -60 95 -106 118 l-48 23 32 8 c42 11
111 80 119 118 3 17 7 30 8 30 2 0 13 -20 25 -45z m-400 -400 c24 -49 72 -92
116 -104 28 -7 28 -7 -20 -30 -46 -23 -106 -89 -106 -118 0 -7 -4 -13 -10 -13
-5 0 -10 6 -10 13 0 29 -60 95 -106 118 l-48 23 32 8 c42 11 111 80 119 118 3
17 7 30 8 30 2 0 13 -20 25 -45z m400 0 c24 -49 72 -92 116 -104 28 -7 28 -7
-20 -30 -46 -23 -106 -89 -106 -118 0 -7 -4 -13 -10 -13 -5 0 -10 6 -10 13 0
29 -60 95 -106 118 l-48 23 32 8 c42 11 111 80 119 118 3 17 7 30 8 30 2 0 13
-20 25 -45z"/>
<path d="M4532 1989 c-48 -14 -109 -80 -123 -131 -23 -89 12 -182 88 -229 57
-36 154 -34 210 3 62 41 88 90 88 168 0 77 -26 127 -85 166 -43 29 -125 39
-178 23z"/>
<path d="M4132 1189 c-48 -14 -109 -80 -123 -131 -23 -89 12 -182 88 -229 57
-36 154 -34 210 3 62 41 88 90 88 168 0 77 -26 127 -85 166 -43 29 -125 39
-178 23z"/>
<path d="M4932 1189 c-48 -14 -109 -80 -123 -131 -23 -89 12 -182 88 -229 57
-36 154 -34 210 3 62 41 88 90 88 168 0 77 -26 127 -85 166 -43 29 -125 39
-178 23z"/>
<path d="M5732 1189 c-48 -14 -109 -80 -123 -131 -23 -89 12 -182 88 -229 57
-36 154 -34 210 3 62 41 88 90 88 168 0 77 -26 127 -85 166 -43 29 -125 39
-178 23z"/>
<path d="M6532 1189 c-48 -14 -109 -80 -123 -131 -23 -89 12 -182 88 -229 57
-36 154 -34 210 3 62 41 88 90 88 168 0 77 -26 127 -85 166 -43 29 -125 39
-178 23z"/>
<path d="M7332 1189 c-48 -14 -109 -80 -123 -131 -23 -89 12 -182 88 -229 57
-36 154 -34 210 3 62 41 88 90 88 168 0 77 -26 127 -85 166 -43 29 -125 39
-178 23z"/>
<path d="M9332 1189 c-48 -14 -109 -80 -123 -131 -23 -89 12 -182 88 -229 57
-36 154 -34 210 3 62 41 88 90 88 168 0 77 -26 127 -85 166 -43 29 -125 39
-178 23z"/>
</g>
</svg>
